<?xml version="1.0" encoding="utf-8"?>
<svg id="master-artboard" viewBox="0 0 1202.7879638671875 420.1912841796875" version="1.1" xmlns="http://www.w3.org/2000/svg" x="0px" y="0px" style="enable-background:new 0 0 336 235.2;" width="1742.7879638671875px" height="438.1912841796875px"><defs><style id="ee-google-fonts">@import url(https://fonts.googleapis.com/css?family=Average+Sans:400);</style><style id="style-1">@import url(https://fonts.googleapis.com/css?family=Anton:400|Roboto+Slab:100,300,400,700);</style><path id="text-path-0" d="M 778.8464965820312 213.4612274169922 A 100 18 0 0 1 988.3533935546875 213.4612274169922 A 100 18 0 0 1 778.8464965820312 213.4612274169922 Z" style="fill: none; stroke: red; stroke-width: 2;"/><path id="text-path-1" d="M 664.5464477539062 37.96122741699219 A 100 19 0 0 1 876.5812377929688 37.96122741699219 A 100 19 0 0 1 664.5464477539062 37.96122741699219" style="fill: none; stroke: red; stroke-width: 2;"/><path id="text-path-2" d="M 765.3650512695312 211.70851135253906 A 100 17 0 0 1 991.5017700195312 211.70851135253906 A 100 17 0 0 1 765.3650512695312 211.70851135253906" style="fill: none; stroke: red; stroke-width: 2;"/><path id="path-1" d="M 765.3650512695312 211.70851135253906 A 100 17 0 0 1 991.5017700195312 211.70851135253906 A 100 17 0 0 1 765.3650512695312 211.70851135253906" style="fill: none; stroke: red; stroke-width: 2;"/></defs><rect id="ee-background" x="0" y="0" width="1742.7879638671875" height="438.1912841796875" style="fill: white; fill-opacity: 0; pointer-events: none;"/>














<path d="M 905 1553 C 803 1518 710 1387 710 1279 C 710 1174 810 990 949 840 L 1000 785 L 1042 831 C 1199 999 1298 1187 1287 1295 C 1281 1358 1252 1430 1234 1430 C 1216 1430 1217 1427 1240 1360 C 1251 1330 1259 1293 1260 1279 C 1260 1224 1219 1122 1161 1035 C 1101 944 1013 835 1000 835 C 987 835 899 944 839 1035 C 768 1142 734 1238 744 1307 C 767 1479 953 1586 1104 1515 C 1130 1502 1144 1500 1152 1508 C 1159 1515 1150 1525 1119 1541 C 1061 1570 971 1575 905 1553 Z" transform="matrix(0.489230215549469, 0, 0, -0.489230215549469, -318.03521728515625, 800.2340698242188)" style="fill: rgb(0, 0, 0); fill-opacity: 1; stroke: rgb(0, 0, 0); stroke-width: 0;"/><path d="M 910 1353 C 832 1284 812.6660770283393 1281.2404629217656 851.9489135742188 1282.16796875 C 876.372314453125 1282.74462890625 870 1264 870 1194 L 870 1120 L 1000 1120 L 1130 1120 L 1130 1194 C 1130 1264 1124.4956970055334 1285.7262600702293 1145.1021728515625 1285.116943359375 C 1184.1021728515625 1283.9637451171875 1168 1284 1088 1353 C 1046 1390 1006 1420 998 1419 C 991 1419 951 1389 910 1353 Z M 1058 1341 L 1100 1302 L 1100 1226 L 1100 1150 L 1056 1150 C 1013 1150 987 1150 944 1150 L 900 1150 L 900 1226 L 900 1302 L 943 1341 C 966 1362 992 1379 1000 1379 C 1008 1379 1034 1362 1058 1341 Z" transform="matrix(0.489230215549469, 0, 0, -0.489230215549469, -318.03521728515625, 800.2340698242188)"/><g id="g-1" transform="matrix(0.2151765674352646, 0, 0, 0.2151765674352646, 376.00653076171875, 196.453857421875)">
	<g id="g-2">
		
	</g>
</g><g id="g-3" transform="matrix(0.1490294635295868, 0, 0, 0.1490294635295868, 154.7620391845703, 144.46435546875)">
	<g id="g-4">
		<path class="st0" d="M58,49h100v100H58V49z" style="fill: black; fill-opacity: 1; stroke-opacity: 1;"/>
	</g>
</g><g id="g-5" transform="matrix(0.12831206619739532, 0, 0, 0.12831206619739532, 182.6379852294922, 68.38777160644531)">
	<g id="g-6">
		<path class="st0" d="M652,46c27.6,0,50,22.4,50,50s-22.4,50-50,50s-50-22.4-50-50S624.4,46,652,46z" style="fill: rgb(51, 51, 51);"/>
	</g>
</g><path d="M 564.1505737304688 406.6078186035156 L 564.1505737304688 406.6078186035156 L 564.1505737304688 406.6078186035156 L 564.1505737304688 379.62249755859375 L 564.1505737304688 379.62249755859375 L 564.1505737304688 379.62249755859375 L 551.7958984375 379.4903259277344 L 551.7958984375 380.0691223144531 L 551.9888305664062 380.0691223144531 L 552.3853149414062 406.739990234375 L 552.3853759765625 406.7400207519531 L 564.1505737304688 406.6078186035156 Z" style="fill: rgb(0, 0, 0); fill-opacity: 1; stroke: rgb(0, 0, 0); stroke-opacity: 1; stroke-width: 0; paint-order: stroke;" transform="matrix(1, 0, 0, 1, -386.26318359375, -168.97239685058594)"/><path d="M 579.606201171875 391.3802795410156 L 579.606201171875 391.3802795410156" style="fill: rgb(0, 0, 0); fill-opacity: 1; stroke: rgb(0, 0, 0); stroke-opacity: 1; stroke-width: 0; paint-order: fill;" transform="matrix(1, 0, 0, 1, -386.26318359375, -168.97239685058594)"/><rect id="rect-2" x="0" y="0" width="970" height="260" style="fill: white; fill-opacity: 0; pointer-events: none;" transform="matrix(1.7126574516296387, 0, 0, 1.7126574516296387, -161.56236267089844, 10.72119140625)"/><g transform="matrix(3.356808662414551, 0, 0, 3.356808662414551, -187.25234985351562, -388.3280334472656)"><g transform="matrix(0.8395070433616638, 0, 0, 0.8395070433616638, -401.53313552015777, -304.93988741176133)"><path d="M 0 0 H 1400 V 980 H 0 V 0 Z" id="rect-1" style="fill: white; fill-opacity: 0.45; pointer-events: none;"/><g transform="matrix(1, 0, 0, 1, -220.7984619140625, 61.85675048828125)">
		<path class="st13" d="M448.4,599.9" style="fill: black;"/>
	</g><g transform="matrix(2.277781009674072, 0, 0, 2.1371772289276123, 877.9420776367186, 574.9366405641366)">
   <text font-family="Abril" font-size="40" font-weight="normal" style="stroke: black; stroke-width: 1; stroke-dasharray: none; stroke-linecap: butt; stroke-linejoin: miter; stroke-miterlimit: 10; fill: black; fill-rule: nonzero; opacity: 1; white-space: pre; font-family: Abril; font-size: 40px; font-weight: normal; fill-opacity: 1;" transform="matrix(0.7140057682991027, 0, 0, 0.7140057682991028, -27.909521102905273, -6.245112582758246)"><tspan x="-83.52" y="8.98" style="stroke: rgb(66, 96, 219); stroke-width: 0; stroke-dasharray: none; stroke-linecap: butt; stroke-linejoin: miter; stroke-miterlimit: 4; fill: rgb(41, 39, 41); opacity: 1; fill-opacity: 0.9;">O</tspan><tspan x="-55" y="8.98" style="stroke: rgb(66, 96, 219); stroke-width: 0; stroke-dasharray: none; stroke-linecap: butt; stroke-linejoin: miter; stroke-miterlimit: 4; fill: rgb(41, 39, 41); opacity: 1; fill-opacity: 0.9;">D</tspan><tspan x="-26.44" y="8.98" style="stroke: rgb(66, 96, 219); stroke-width: 0; stroke-dasharray: none; stroke-linecap: butt; stroke-linejoin: miter; stroke-miterlimit: 4; fill: rgb(41, 39, 41); opacity: 1; fill-opacity: 0.9;">H</tspan><tspan x="4" y="8.98" style="stroke: rgb(66, 96, 219); stroke-width: 0; stroke-dasharray: none; stroke-linecap: butt; stroke-linejoin: miter; stroke-miterlimit: 4; fill: rgb(41, 39, 41); opacity: 1; fill-opacity: 0.9;">A</tspan><tspan x="30.6" y="8.98" style="stroke: rgb(66, 96, 219); stroke-width: 0; stroke-dasharray: none; stroke-linecap: butt; stroke-linejoin: miter; stroke-miterlimit: 4; fill: rgb(41, 39, 41); opacity: 1; fill-opacity: 0.9;">D</tspan><tspan x="59.16" y="8.98" style="stroke: rgb(66, 96, 219); stroke-width: 0; stroke-dasharray: none; stroke-linecap: butt; stroke-linejoin: miter; stroke-miterlimit: 4; fill: rgb(41, 39, 41); opacity: 1; fill-opacity: 0.9;">Y</tspan></text>
 </g><g transform="matrix(1.3038172721862793, 0, 0, 0.9952829480171203, 813.6090137327385, 616.5919189453125)">
   <text font-family="Abril" font-size="40" font-weight="normal" style="stroke: black; stroke-width: 1; stroke-dasharray: none; stroke-linecap: butt; stroke-linejoin: miter; stroke-miterlimit: 10; fill: black; fill-rule: nonzero; opacity: 1; white-space: pre; font-family: Abril; font-size: 40px; font-weight: normal; fill-opacity: 1;"><tspan x="-101.28" y="8.98" style="stroke: none; stroke-width: 0; stroke-dasharray: none; stroke-linecap: butt; stroke-linejoin: miter; stroke-miterlimit: 4; fill: rgb(46, 45, 46); opacity: 1; fill-opacity: 0.8;">J</tspan><tspan x="-83.28" y="8.98" style="stroke: none; stroke-width: 0; stroke-dasharray: none; stroke-linecap: butt; stroke-linejoin: miter; stroke-miterlimit: 4; fill: rgb(46, 45, 46); opacity: 1; fill-opacity: 0.8;">i</tspan><tspan x="-71.48" y="8.98" style="stroke: none; stroke-width: 0; stroke-dasharray: none; stroke-linecap: butt; stroke-linejoin: miter; stroke-miterlimit: 4; fill: rgb(46, 45, 46); opacity: 1; fill-opacity: 0.8;">ž</tspan><tspan x="-51.56" y="8.98" style="stroke: none; stroke-width: 0; stroke-dasharray: none; stroke-linecap: butt; stroke-linejoin: miter; stroke-miterlimit: 4; fill: rgb(46, 45, 46); opacity: 1; fill-opacity: 0.8;">n</tspan><tspan x="-27.08" y="8.98" style="stroke: none; stroke-width: 0; stroke-dasharray: none; stroke-linecap: butt; stroke-linejoin: miter; stroke-miterlimit: 4; fill: rgb(46, 45, 46); opacity: 1; fill-opacity: 0.8;">í</tspan><tspan x="-15.28" y="8.98" style="stroke: none; stroke-width: 0; stroke-dasharray: none; stroke-linecap: butt; stroke-linejoin: miter; stroke-miterlimit: 4; fill: rgb(46, 45, 46); opacity: 1; fill-opacity: 0.8;"> </tspan><tspan x="-7.28" y="8.98" style="stroke: none; stroke-width: 0; stroke-dasharray: none; stroke-linecap: butt; stroke-linejoin: miter; stroke-miterlimit: 4; fill: rgb(46, 45, 46); opacity: 1; fill-opacity: 0.8;">Č</tspan><tspan x="18.68" y="8.98" style="stroke: none; stroke-width: 0; stroke-dasharray: none; stroke-linecap: butt; stroke-linejoin: miter; stroke-miterlimit: 4; fill: rgb(46, 45, 46); opacity: 1; fill-opacity: 0.8;">e</tspan><tspan x="37.96" y="8.98" style="stroke: none; stroke-width: 0; stroke-dasharray: none; stroke-linecap: butt; stroke-linejoin: miter; stroke-miterlimit: 4; fill: rgb(46, 45, 46); opacity: 1; fill-opacity: 0.8;">c</tspan><tspan x="56.96" y="8.98" style="stroke: none; stroke-width: 0; stroke-dasharray: none; stroke-linecap: butt; stroke-linejoin: miter; stroke-miterlimit: 4; fill: rgb(46, 45, 46); opacity: 1; fill-opacity: 0.8;">h</tspan><tspan x="81.44" y="8.98" style="stroke: none; stroke-width: 0; stroke-dasharray: none; stroke-linecap: butt; stroke-linejoin: miter; stroke-miterlimit: 4; fill: rgb(46, 45, 46); opacity: 1; fill-opacity: 0.8;">y</tspan></text>
 </g><path d="M 527.9664916992188 518.49462890625 L 575.6880493164062 518.190673828125" style="fill: black; fill-opacity: 1; stroke: black; stroke-opacity: 1; stroke-width: 0; paint-order: fill;"/><path d="M 576.1503295898438 517.9705810546875 L 528.1914672851562 517.9705810546875" style="fill: rgb(41, 39, 41); fill-opacity: 1; stroke: rgb(66, 86, 219); stroke-opacity: 1; stroke-width: 0; paint-order: stroke;"/></g></g></svg>